# xmcd
#
# Track frame offsets: 
#        150
#        12083
#        27376
#        39765
#        52515
#        64594
#        75863
#        90104
#        104366
#        118103
#        132294
#        145847
#        158985
#        171308
#        183525
#        195237
#        209532
#        224048
#        237577
#        250395
#        279575
#        291550
#        304954
#        322110
#
# Disc length: 4443 seconds
#
# Revision: 2
# Processed by: cddbd v1.5.2PL0 Copyright (c) Steve Scherf et al.
# Submitted via: ExactAudioCopy v0.99pb5
#
DISCID=5a115918
DTITLE=Various Artist - Nuggets Of The Golden Age Of Gospel 1945-1958 - Disc 
DTITLE=3
DYEAR=2009
DGENRE=Gospel
TTITLE0=Reverend H B Crum and The Golden Keys - So Glad I'm Here
TTITLE1=Dixieland Singers - Our Prayer
TTITLE2=Little Joe Cook and The Evening Star Quartet - Jesus, I'll Never
TTITLE2=Forget
TTITLE3=James Phelps and The Gospel Song Birds - God's Creation
TTITLE4=Kelly Brothers - Prayer For Tomorrow
TTITLE5=Royal Travelers - Yes It's Me Lord, That Came To Thee
TTITLE6=Nappy Brown and Selah Jubilee Singers - Who So Ever Will
TTITLE7=Sam Cooke and The Soul Stirrers - Pilgrim Of Sorrow
TTITLE8=Southern Travelers - I Can See Everybody's Mother
TTITLE9=Argo Gospel Singers - He's Alright With Me
TTITLE10=Johnnie Taylor and The Highway QC's - I Was So Hapy
TTITLE11=Candi Staton and The Jewel Gospel Trio - Jesus Is Listening
TTITLE12=Mitchell Aires Quintet - Lord, Will I Meet Them Again
TTITLE13=Original Gospel Stars - I Want To Go To Heaven
TTITLE14=Julius 'June' Cheeks and The Sensational Nightingales - Burying
TTITLE14=Ground
TTITLE15=Roscoe Robinson and Huey Bown and The Silver Quintette - Sinner's
TTITLE15=Crossroads
TTITLE16=Joe Hinton and The Spirit Of Memphis - I Need Thee
TTITLE17=Mavis Staples and The Staples Singers - Uncloudy Day
TTITLE18=Claude Jeter and The Swan Silvertones - Jesus Remembers
TTITLE19=Judy Clay and The Drinkard Singers - That's Enough
TTITLE20=Morgan Babb and The Philco Singers - Wonder How Long
TTITLE21=Bessie Griffin and The Gospel Consolators - Every Now And Then
TTITLE22=Archie Brownlee and The Five Blind Boys Of Mississippi - Let's 
TTITLE22=Have Church
TTITLE23=Come Home
EXTD=
EXTT0=
EXTT1=
EXTT2=
EXTT3=
EXTT4=
EXTT5=
EXTT6=
EXTT7=
EXTT8=
EXTT9=
EXTT10=
EXTT11=
EXTT12=
EXTT13=
EXTT14=
EXTT15=
EXTT16=
EXTT17=
EXTT18=
EXTT19=
EXTT20=
EXTT21=
EXTT22=
EXTT23=
PLAYORDER=
